<svg width="1280" height="720" viewBox="0 0 1280 720" fill="none" xmlns="http://www.w3.org/2000/svg">
<g clip-path="url(#clip0)">
<path d="M120.807 819.783L-5.78688 746.306L-5.4512 599.935L121.478 527.04L248.072 600.516L247.736 746.888L120.807 819.783Z" fill="#000EE6" fill-opacity="0.73"/>
<path d="M211.607 707.612L133.686 662.385L133.893 572.291L212.02 527.423L289.941 572.649L289.734 662.743L211.607 707.612Z" fill="#000EE6" fill-opacity="0.73"/>
<path d="M31.0942 673.395L-46.8263 628.169L-46.6197 538.075L31.5074 493.207L109.428 538.433L109.221 628.527L31.0942 673.395Z" fill="#000EE6" fill-opacity="0.73"/>
<path d="M1371.79 -16.5985L1361.28 72.881L1278.53 108.521L1206.3 54.6808L1216.8 -34.7987L1299.55 -70.4384L1371.79 -16.5985Z" fill="#000EE6" fill-opacity="0.73"/>
</g>
<defs>
<clipPath id="clip0">
<rect width="1280" height="720" fill="white"/>
</clipPath>
</defs>
</svg>
