<svg width="375" height="812" viewBox="0 0 375 812" fill="none" xmlns="http://www.w3.org/2000/svg">
<g clip-path="url(#clip0)">
<path d="M80.98 876.783L-0.676217 829.389L-0.459699 734.976L81.4131 687.956L163.069 735.351L162.853 829.764L80.98 876.783Z" fill="#000EE6" fill-opacity="0.73"/>
<path d="M139.548 804.43L89.2877 775.258L89.4209 717.145L139.815 688.204L190.076 717.376L189.942 775.489L139.548 804.43Z" fill="#000EE6" fill-opacity="0.73"/>
<path d="M23.113 782.359L-27.1477 753.187L-27.0145 695.074L23.3796 666.133L73.6403 695.305L73.507 753.418L23.113 782.359Z" fill="#000EE6" fill-opacity="0.73"/>
<path d="M450.464 -8.0417L442.342 61.1217L378.384 88.6694L322.548 47.0538L330.67 -22.1096L394.628 -49.6573L450.464 -8.0417Z" fill="#000EE6" fill-opacity="0.73"/>
</g>
<defs>
<clipPath id="clip0">
<rect width="375" height="812" fill="white"/>
</clipPath>
</defs>
</svg>
