<svg width="1600" height="900" viewBox="0 0 1600 900" fill="none" xmlns="http://www.w3.org/2000/svg">
<g clip-path="url(#clip0)">
<path d="M136.747 1006.75L-1.06942 926.763L-0.70399 767.415L137.478 688.057L275.295 768.048L274.929 927.396L136.747 1006.75Z" fill="#000EE6" fill-opacity="0.73"/>
<path d="M235.597 884.637L150.769 835.402L150.994 737.321L236.047 688.475L320.875 737.71L320.65 835.792L235.597 884.637Z" fill="#000EE6" fill-opacity="0.73"/>
<path d="M39.0811 847.387L-45.7473 798.152L-45.5224 700.071L39.531 651.225L124.359 700.46L124.134 798.542L39.0811 847.387Z" fill="#000EE6" fill-opacity="0.73"/>
<path d="M1706.2 -6.35212L1694.39 94.2077L1601.4 134.261L1520.22 73.7537L1532.03 -26.8061L1625.02 -66.859L1706.2 -6.35212Z" fill="#000EE6" fill-opacity="0.73"/>
</g>
<defs>
<clipPath id="clip0">
<rect width="1600" height="900" fill="white"/>
</clipPath>
</defs>
</svg>
