<svg width="1488" height="754" viewBox="0 0 1488 754" fill="none" xmlns="http://www.w3.org/2000/svg">
<g clip-path="url(#clip0)">
<path d="M129.602 856.767L-3.18415 779.696L-2.83206 626.165L130.306 549.705L263.091 626.775L262.739 780.306L129.602 856.767Z" fill="#000EE6" fill-opacity="0.73"/>
<path d="M224.843 739.109L143.111 691.67L143.328 597.17L225.276 550.107L307.008 597.545L306.791 692.046L224.843 739.109Z" fill="#000EE6" fill-opacity="0.73"/>
<path d="M35.5009 703.218L-46.2309 655.78L-46.0142 561.28L35.9343 514.217L117.666 561.655L117.449 656.156L35.5009 703.218Z" fill="#000EE6" fill-opacity="0.73"/>
<path d="M1586.8 -11.9344L1575.7 82.5889L1488.29 120.237L1411.98 63.3627L1423.08 -31.1605L1510.49 -68.809L1586.8 -11.9344Z" fill="#000EE6" fill-opacity="0.73"/>
</g>
<defs>
<clipPath id="clip0">
<rect width="1488" height="754" fill="white"/>
</clipPath>
</defs>
</svg>
