<svg width="411" height="731" viewBox="0 0 411 731" fill="none" xmlns="http://www.w3.org/2000/svg">
<g clip-path="url(#clip0)">
<path d="M80.98 795.783L-0.676217 748.389L-0.459699 653.976L81.4131 606.956L163.069 654.351L162.853 748.764L80.98 795.783Z" fill="#000EE6" fill-opacity="0.73"/>
<path d="M139.548 723.43L89.2877 694.258L89.4209 636.145L139.815 607.204L190.076 636.376L189.942 694.489L139.548 723.43Z" fill="#000EE6" fill-opacity="0.73"/>
<path d="M23.113 701.359L-27.1477 672.187L-27.0145 614.074L23.3796 585.133L73.6403 614.305L73.507 672.418L23.113 701.359Z" fill="#000EE6" fill-opacity="0.73"/>
<path d="M485.464 -8.0417L477.342 61.1217L413.384 88.6694L357.548 47.0538L365.67 -22.1096L429.628 -49.6573L485.464 -8.0417Z" fill="#000EE6" fill-opacity="0.73"/>
</g>
<defs>
<clipPath id="clip0">
<rect width="411" height="731" fill="white"/>
</clipPath>
</defs>
</svg>
