<svg height="512" viewBox="0 0 128 128" width="512" xmlns="http://www.w3.org/2000/svg"><g><path fill="#59aacd" d="m65.328 37.14a1.806 1.806 0 0 0 -2.656 0c-.033.039-3.026 3.532-6.819 8.528-2.093-3.009-4.147-5.442-4.6-5.966a1.808 1.808 0 0 0 -2.656 0c-.983 1.145-9.605 11.349-9.605 16.907a10.911 10.911 0 0 0 4.138 8.55c-2.77 5.384-4.138 9.673-4.138 13.049a25.005 25.005 0 1 0 50.01 0c.003-13.339-22.702-39.942-23.674-41.068zm-15.4 6.445a71.684 71.684 0 0 1 4.326 5.988c.009.016.02.031.03.047 1.75 2.742 3.077 5.389 3.077 6.989a7.433 7.433 0 1 1 -14.866 0c.005-2.822 4.132-8.909 7.433-13.024zm14.072 56.128a21.531 21.531 0 0 1 -21.5-21.505c0-2.753 1.25-6.57 3.691-11.339a10.9 10.9 0 0 0 14.675-10.26c0-2.17-1.319-5.046-2.979-7.817 2.527-3.369 4.77-6.152 6.117-7.784 4.876 5.919 21.506 26.864 21.506 37.2a21.531 21.531 0 0 1 -21.51 21.505z"/><path fill="#59aacd" d="m78.416 42.556a7.009 7.009 0 0 0 7-7c0-3.377-4.726-9.054-5.673-10.158a1.751 1.751 0 0 0 -2.656 0c-.947 1.1-5.674 6.78-5.674 10.158a7.01 7.01 0 0 0 7.003 7zm0-13.24c1.858 2.422 3.5 5.116 3.5 6.239a3.5 3.5 0 0 1 -7 0c-.002-1.123 1.642-3.817 3.5-6.239z"/></g></svg>